<svg width="40" height="40" viewBox="0 0 40 40" fill="none" xmlns="http://www.w3.org/2000/svg">
<path d="M14.167 29.1667L9.16699 33.3334V25.8334H4.10289C3.45684 25.8334 2.83728 25.5767 2.38044 25.1199C1.92363 24.6631 1.66699 24.0436 1.66699 23.3976V4.10265C1.66699 3.4566 1.92363 2.83703 2.38044 2.3802C2.83728 1.92338 3.45684 1.66675 4.10289 1.66675H30.8978C31.5438 1.66675 32.1633 1.92338 32.6202 2.3802C33.077 2.83703 33.3337 3.4566 33.3337 4.10265V11.3532" stroke="#BE1E2D" stroke-width="2" stroke-linecap="round" stroke-linejoin="round"/>
<path d="M8.33301 8.33325H26.6663" stroke="#BE1E2D" stroke-width="2" stroke-linecap="round" stroke-linejoin="round"/>
<path d="M8.33301 15H16.6663" stroke="#BE1E2D" stroke-width="2" stroke-linecap="round" stroke-linejoin="round"/>
<path d="M28.3337 31.6666C32.0155 31.6666 35.0003 28.6818 35.0003 24.9999C35.0003 21.3181 32.0155 18.3333 28.3337 18.3333C24.6518 18.3333 21.667 21.3181 21.667 24.9999C21.667 28.6818 24.6518 31.6666 28.3337 31.6666Z" stroke="#BE1E2D" stroke-width="2" stroke-linecap="round" stroke-linejoin="round"/>
<path d="M36.6667 36.6666C35.8612 35.6598 34.6603 34.8176 33.1925 34.2306C31.7247 33.6434 30.045 33.3333 28.3333 33.3333C26.6217 33.3333 24.942 33.6434 23.4742 34.2306C22.0063 34.8176 20.8055 35.6598 20 36.6666" stroke="#BE1E2D" stroke-width="2" stroke-linecap="round" stroke-linejoin="round"/>
</svg>
