<svg width="60" height="48" viewBox="0 0 60 48" fill="none" xmlns="http://www.w3.org/2000/svg">
<path d="M12.664 30.3171C11.4072 30.3171 10.1787 30.6635 9.13372 31.3124C8.08876 31.9612 7.27432 32.8835 6.79338 33.9625C6.31245 35.0416 6.18661 36.2289 6.43179 37.3744C6.67697 38.5199 7.28215 39.5722 8.17081 40.398C9.05947 41.2239 10.1917 41.7863 11.4243 42.0142C12.6569 42.242 13.9345 42.1251 15.0956 41.6781C16.2567 41.2312 17.2491 40.4743 17.9473 39.5032C18.6455 38.5321 19.0182 37.3903 19.0182 36.2224C19.0182 34.6562 18.3487 33.1542 17.1571 32.0467C15.9654 30.9393 14.3492 30.3171 12.664 30.3171ZM12.664 39.8169C11.899 39.8169 11.1512 39.6061 10.5151 39.2111C9.87905 38.8161 9.38331 38.2547 9.09056 37.5979C8.79782 36.9411 8.72122 36.2184 8.87046 35.5211C9.0197 34.8239 9.38808 34.1834 9.929 33.6807C10.4699 33.178 11.1591 32.8357 11.9094 32.697C12.6597 32.5583 13.4373 32.6294 14.1441 32.9015C14.8508 33.1736 15.4549 33.6343 15.8799 34.2254C16.3049 34.8165 16.5318 35.5115 16.5318 36.2224C16.5296 37.1744 16.1211 38.0867 15.396 38.7591C14.6709 39.4315 13.6883 39.8092 12.664 39.8092V39.8169Z" fill="#BE1E2D"/>
<path d="M54.3478 26.4197V23.0819C54.3462 22.8681 54.2808 22.6589 54.1589 22.4776C54.0369 22.2963 53.8632 22.15 53.6571 22.0549L50.1126 20.4117L48.4549 17.3307C48.3715 17.165 48.2468 17.0201 48.0911 16.9081C47.9355 16.796 47.7533 16.72 47.5598 16.6863C44.2639 16.1471 38.3793 15.2049 35.2933 14.735L32.666 5.23525H33.1771C33.5068 5.23525 33.823 5.11353 34.0562 4.89685C34.2893 4.68018 34.4203 4.3863 34.4203 4.07988C34.4203 3.77346 34.2893 3.47958 34.0562 3.26291C33.823 3.04623 33.5068 2.92451 33.1771 2.92451H28.544V1.15293C28.544 0.846508 28.413 0.552635 28.1799 0.33596C27.9467 0.119285 27.6305 -0.00244141 27.3008 -0.00244141C26.9711 -0.00244141 26.6548 0.119285 26.4217 0.33596C26.1885 0.552635 26.0576 0.846508 26.0576 1.15293V2.92707H18.1893C17.9149 2.92667 17.648 3.01088 17.4305 3.16653C17.213 3.32217 17.0573 3.54045 16.9876 3.78719C16.0538 7.05304 14.689 12.4807 14.1585 14.6092H12.1777V10.0365C12.1769 9.11513 11.783 8.23168 11.0822 7.57995C10.3814 6.92822 9.4311 6.56144 8.4397 6.56008C8.10998 6.56008 7.79376 6.68181 7.56061 6.89848C7.32746 7.11516 7.19648 7.40903 7.19648 7.71546C7.19648 8.02188 7.32746 8.31576 7.56061 8.53243C7.79376 8.74911 8.10998 8.87083 8.4397 8.87083C8.77188 8.87151 9.0902 8.99462 9.32483 9.21315C9.55945 9.43167 9.69122 9.72777 9.69122 10.0365V14.8557C9.62773 14.9014 9.56858 14.9521 9.5144 15.0072L4.54151 20.3065C4.34245 20.5201 4.23437 20.7941 4.23761 21.0767V27.4492C2.69962 28.7228 1.51928 30.3258 0.799031 32.1194C0.078777 33.9129 -0.159632 35.8427 0.104495 37.7412C0.368622 39.6398 1.1273 41.4497 2.3147 43.014C3.50209 44.5784 5.08233 45.8497 6.91826 46.7179C8.75419 47.586 10.7903 48.0246 12.85 47.9957C14.9097 47.9668 16.9307 47.4712 18.7375 46.5519C20.5444 45.6326 22.0826 44.3174 23.2186 42.7205C24.3546 41.1236 25.0541 39.2931 25.2564 37.388H34.7325C34.9421 39.3639 35.6862 41.2584 36.8955 42.8951C38.1048 44.5319 39.7401 45.8578 41.649 46.7493C43.5579 47.6408 45.6785 48.0691 47.8134 47.9942C49.9483 47.9193 52.0281 47.3437 53.8593 46.321C55.6905 45.2982 57.2135 43.8616 58.2866 42.1447C59.3596 40.4279 59.9479 38.4867 59.9967 36.5018C60.0455 34.5168 59.5531 32.5527 58.5654 30.7921C57.5777 29.0316 56.1269 27.5318 54.3478 26.4325V26.4197ZM32.9257 15.4693L30.7431 17.8237H25.3033L22.9302 15.2459V5.23269H30.1132L32.9257 15.4693ZM19.148 5.23782H20.4437V14.6092H16.7113C17.2528 12.4422 18.3164 8.23666 19.148 5.23782ZM6.73234 22.2193H11.9815C12.3112 22.2193 12.6275 22.0975 12.8606 21.8809C13.0938 21.6642 13.2247 21.3703 13.2247 21.0639C13.2247 20.7575 13.0938 20.4636 12.8606 20.2469C12.6275 20.0302 12.3112 19.9085 11.9815 19.9085H8.21869L11.0201 16.9199H21.1924L23.7894 19.7442C23.9056 19.8708 24.05 19.9725 24.2127 20.0421C24.3754 20.1117 24.5524 20.1476 24.7315 20.1473H31.3123C31.491 20.1474 31.6678 20.1117 31.8303 20.0426C31.9929 19.9734 32.1375 19.8725 32.2543 19.7468L34.7795 17.0226C37.6389 17.4565 43.098 18.3167 46.51 18.8712L48.0709 21.7802C48.1899 22.0028 48.384 22.1831 48.6235 22.2937L51.8531 23.788V25.2207C50.0334 24.5731 48.0774 24.3245 46.1374 24.4944C44.1975 24.6643 42.3259 25.248 40.6683 26.2C39.0108 27.1521 37.6121 28.4468 36.5811 29.9835C35.5501 31.5201 34.9147 33.2571 34.7242 35.0593H25.2647C25.0623 33.1362 24.3533 31.289 23.2002 29.6811C22.0471 28.0732 20.4855 26.7541 18.6535 25.8403C16.8214 24.9266 14.7753 24.4464 12.6961 24.4422C10.6169 24.438 8.56864 24.91 6.73234 25.8163V22.2193ZM12.6639 45.6759C10.6508 45.6764 8.68274 45.1221 7.00864 44.0831C5.33453 43.0441 4.02958 41.567 3.25882 39.8387C2.48806 38.1104 2.28611 36.2085 2.67851 34.3735C3.07091 32.5386 4.04004 30.853 5.46333 29.5299C6.88662 28.2068 8.70014 27.3057 10.6745 26.9405C12.6489 26.5754 14.6955 26.7625 16.5554 27.4783C18.4153 28.1942 20.005 29.4065 21.1235 30.962C22.242 32.5176 22.839 34.3464 22.839 36.2173C22.8368 38.7248 21.7642 41.1291 19.8565 42.9024C17.9489 44.6757 15.3621 45.6732 12.6639 45.6759ZM47.3443 45.6759C45.3311 45.6764 43.3629 45.1221 41.6888 44.0829C40.0146 43.0438 38.7096 41.5666 37.939 39.8381C37.1683 38.1097 36.9665 36.2076 37.3591 34.3726C37.7518 32.5376 38.7212 30.8519 40.1447 29.529C41.5683 28.206 43.3821 27.3051 45.3566 26.9402C47.3312 26.5753 49.3779 26.7629 51.2377 27.4791C53.0976 28.1953 54.6871 29.408 55.8053 30.9639C56.9234 32.5198 57.52 34.3489 57.5194 36.2198C57.5158 38.7267 56.4426 41.1299 54.5352 42.9025C52.6278 44.6752 50.0418 45.6725 47.3443 45.6759Z" fill="#BE1E2D"/>
<path d="M47.3443 30.3171C46.0876 30.3171 44.859 30.6635 43.8141 31.3124C42.7691 31.9612 41.9547 32.8835 41.4737 33.9625C40.9928 35.0416 40.867 36.2289 41.1121 37.3744C41.3573 38.5199 41.9625 39.5722 42.8512 40.398C43.7398 41.2239 44.8721 41.7863 46.1047 42.0142C47.3373 42.242 48.6149 42.1251 49.776 41.6781C50.9371 41.2312 51.9295 40.4743 52.6277 39.5032C53.3259 38.5321 53.6986 37.3903 53.6986 36.2224C53.6986 35.4469 53.5342 34.679 53.2149 33.9625C52.8955 33.2461 52.4275 32.5951 51.8374 32.0467C51.2474 31.4984 50.5469 31.0634 49.776 30.7667C49.005 30.4699 48.1788 30.3171 47.3443 30.3171ZM47.3443 39.8169C46.5793 39.8169 45.8315 39.6061 45.1955 39.2111C44.5594 38.8161 44.0637 38.2547 43.7709 37.5979C43.4782 36.9411 43.4016 36.2184 43.5508 35.5211C43.7001 34.8239 44.0684 34.1834 44.6094 33.6807C45.1503 33.178 45.8395 32.8357 46.5897 32.697C47.34 32.5583 48.1177 32.6294 48.8245 32.9015C49.5312 33.1736 50.1353 33.6343 50.5603 34.2254C50.9853 34.8165 51.2121 35.5115 51.2121 36.2224C51.2099 37.1744 50.8015 38.0867 50.0763 38.7591C49.3512 39.4315 48.3687 39.8092 47.3443 39.8092V39.8169Z" fill="#BE1E2D"/>
<path d="M28.5579 26.1682H31.5278C31.8575 26.1682 32.1737 26.0464 32.4069 25.8298C32.64 25.6131 32.771 25.3192 32.771 25.0128C32.771 24.7064 32.64 24.4125 32.4069 24.1958C32.1737 23.9791 31.8575 23.8574 31.5278 23.8574H28.5579C28.2281 23.8574 27.9119 23.9791 27.6788 24.1958C27.4456 24.4125 27.3146 24.7064 27.3146 25.0128C27.3146 25.3192 27.4456 25.6131 27.6788 25.8298C27.9119 26.0464 28.2281 26.1682 28.5579 26.1682Z" fill="#BE1E2D"/>
<path d="M28.5579 30.7895H31.5278C31.8575 30.7895 32.1737 30.6678 32.4069 30.4511C32.64 30.2344 32.771 29.9406 32.771 29.6341C32.771 29.3277 32.64 29.0338 32.4069 28.8172C32.1737 28.6005 31.8575 28.4788 31.5278 28.4788H28.5579C28.2281 28.4788 27.9119 28.6005 27.6788 28.8172C27.4456 29.0338 27.3146 29.3277 27.3146 29.6341C27.3146 29.9406 27.4456 30.2344 27.6788 30.4511C27.9119 30.6678 28.2281 30.7895 28.5579 30.7895Z" fill="#BE1E2D"/>
</svg>
