<svg width="40" height="40" viewBox="0 0 40 40" fill="none" xmlns="http://www.w3.org/2000/svg">
<path fill-rule="evenodd" clip-rule="evenodd" d="M32.9688 8.75C32.9688 6.67875 31.29 5 29.2188 5C24.895 5 16.0725 5 11.75 5C9.67875 5 8 6.67875 8 8.75V31.25C8 33.3213 9.67875 35 11.75 35C16.0725 35 24.895 35 29.2188 35C31.29 35 32.9688 33.3213 32.9688 31.25V8.75ZM30.4688 8.75V31.25C30.4688 31.94 29.9088 32.5 29.2188 32.5H11.75C11.06 32.5 10.5 31.94 10.5 31.25V8.75C10.5 8.06 11.06 7.5 11.75 7.5H29.2188C29.9088 7.5 30.4688 8.06 30.4688 8.75Z" fill="#BE1E2D"/>
<path fill-rule="evenodd" clip-rule="evenodd" d="M19.2475 12.5161H18C17.31 12.5161 16.75 13.0761 16.75 13.7661C16.75 14.4561 17.31 15.0161 18 15.0161H19.2525L19.255 16.2686C19.2562 16.9586 19.8175 17.5174 20.5075 17.5161C21.1975 17.5149 21.7562 16.9536 21.755 16.2636L21.7525 15.0161H23C23.69 15.0161 24.25 14.4561 24.25 13.7661C24.25 13.0761 23.69 12.5161 23 12.5161H21.7475L21.745 11.2636C21.7438 10.5736 21.1825 10.0149 20.4925 10.0161C19.8025 10.0174 19.2438 10.5786 19.245 11.2686L19.2475 12.5161Z" fill="#BE1E2D"/>
<path fill-rule="evenodd" clip-rule="evenodd" d="M14.2656 23.75H26.7494C27.4394 23.75 27.9994 23.19 27.9994 22.5C27.9994 21.81 27.4394 21.25 26.7494 21.25H14.2656C13.5756 21.25 13.0156 21.81 13.0156 22.5C13.0156 23.19 13.5756 23.75 14.2656 23.75Z" fill="#BE1E2D"/>
<path fill-rule="evenodd" clip-rule="evenodd" d="M14.2656 28.75H26.7494C27.4394 28.75 27.9994 28.19 27.9994 27.5C27.9994 26.81 27.4394 26.25 26.7494 26.25H14.2656C13.5756 26.25 13.0156 26.81 13.0156 27.5C13.0156 28.19 13.5756 28.75 14.2656 28.75Z" fill="#BE1E2D"/>
</svg>
