<svg width="40" height="40" viewBox="0 0 40 40" fill="none" xmlns="http://www.w3.org/2000/svg">
<g clip-path="url(#clip0_2777_7124)">
<path d="M18.7427 37.5C18.0523 37.5 17.4927 36.9404 17.4927 36.25C17.4927 35.609 17.9752 35.0806 18.5969 35.0084L18.7427 35H31.25C33.2471 35 34.8796 33.4389 34.9936 31.4703L35 31.25V8.75C35 6.7529 33.4389 5.12042 31.4703 5.00637L31.25 5H8.75C6.7529 5 5.12042 6.56115 5.00637 8.52966L5 8.75V21.2453C5 21.9357 4.44036 22.4953 3.75 22.4953C3.10896 22.4953 2.58062 22.0128 2.50841 21.3911L2.5 21.2453V8.75C2.5 5.38906 5.15288 2.64773 8.47889 2.50578L8.75 2.5H31.25C34.6109 2.5 37.3523 5.15288 37.4942 8.47889L37.5 8.75V31.25C37.5 34.6109 34.8471 37.3523 31.5211 37.4942L31.25 37.5H18.7427ZM5.42893 34.8744C4.94078 34.3862 4.94078 33.5948 5.42893 33.1066L19.7841 18.75H14.0533C13.3629 18.75 12.8033 18.1904 12.8033 17.5C12.8033 16.8096 13.3629 16.25 14.0533 16.25H22.8033C23.4937 16.25 24.0533 16.8096 24.0533 17.5V26.25C24.0533 26.9404 23.4937 27.5 22.8033 27.5C22.1129 27.5 21.5533 26.9404 21.5533 26.25L21.5528 20.5175L7.1967 34.8744C6.70854 35.3625 5.91709 35.3625 5.42893 34.8744Z" fill="#BE1E2D"/>
</g>
<defs>
<clipPath id="clip0_2777_7124">
<rect width="40" height="40" fill="white" transform="matrix(-1 0 0 -1 40 40)"/>
</clipPath>
</defs>
</svg>
