<svg width="60" height="60" viewBox="0 0 60 60" fill="none" xmlns="http://www.w3.org/2000/svg">
<path d="M55.5356 32.3072L55.5569 32.6397L55.8719 32.7481C57.9813 33.4739 59.5 35.4767 59.5 37.8262C59.5 40.3205 57.789 42.4251 55.4776 43.0245L55.2147 43.0927L55.1288 43.3503L53.3829 48.5877L53.8573 48.7458L53.3829 48.5877C52.1174 52.3844 48.5788 54.9349 44.5767 54.9349H15.4234C11.4212 54.9349 7.88273 52.3845 6.61708 48.5876L4.87133 43.3504L4.78544 43.0927L4.52251 43.0245C2.21114 42.4251 0.5 40.3203 0.5 37.8262C0.5 35.4767 2.01867 33.4739 4.12806 32.7481L4.44312 32.6397L4.46437 32.3072C5.11772 22.0845 11.9688 13.2878 21.7229 10.1666L22.0263 10.0695L22.0665 9.7535C22.4024 7.11351 24.6625 5.06519 27.3912 5.06519H32.6086C35.3374 5.06519 37.5975 7.11351 37.9334 9.7535L37.9736 10.0695L38.277 10.1666C48.0313 13.2878 54.8823 22.0845 55.5356 32.3072ZM38.6595 13.3909L37.9783 13.1259V13.8569V31.9565V32.4565H38.4783H52.0847H52.632L52.5826 31.9114C51.8287 23.5812 46.4126 16.4067 38.6595 13.3909ZM24.9347 10.4349V10.9349H24.9348V31.9566V32.4566H25.4348H34.5653H35.0653V31.9566V10.4349C35.0653 9.0799 33.9637 7.97831 32.6087 7.97831H27.3913C26.0363 7.97831 24.9347 9.0799 24.9347 10.4349ZM22.0217 13.8569V13.1259L21.3405 13.3909C13.5874 16.4067 8.17146 23.5812 7.41735 31.9114L7.368 32.4565H7.91531H21.5217H22.0217V31.9565V13.8569ZM9.38066 47.6664L9.855 47.5083L9.38066 47.6664C10.249 50.2712 12.6777 52.0218 15.4234 52.0218H44.5767C47.3222 52.0218 49.7513 50.2711 50.6194 47.6664L51.8904 43.8539L52.1098 43.1957H51.416H8.58422H7.89052L8.10987 43.8538L9.38066 47.6664ZM5.86957 40.2826H54.1304C55.4854 40.2826 56.587 39.1812 56.587 37.826C56.587 36.4711 55.4854 35.3695 54.1304 35.3695H54.1185H54.1056H54.0917H54.0769H54.061H54.0443H54.0265H54.0078H53.9882H53.9676H53.9461H53.9236H53.9002H53.8759H53.8506H53.8244H53.7973H53.7693H53.7403H53.7105H53.6797H53.6481H53.6155H53.5821H53.5478H53.5126H53.4765H53.4395H53.4016H53.3629H53.3233H53.2829H53.2416H53.1994H53.1564H53.1126H53.0679H53.0223H52.976H52.9288H52.8807H52.8319H52.7822H52.7317H52.6804H52.6283H52.5754H52.5217H52.4672H52.4119H52.3558H52.2989H52.2413H52.1828H52.1236H52.0636H52.0029H51.9414H51.8791H51.8161H51.7523H51.6878H51.6226H51.5566H51.4898H51.4224H51.3542H51.2853H51.2157H51.1453H51.0743H51.0025H50.93H50.8569H50.783H50.7084H50.6332H50.5573H50.4806H50.4034H50.3254H50.2468H50.1675H50.0875H50.0069H49.9256H49.8437H49.7611H49.6779H49.5941H49.5096H49.4245H49.3388H49.2524H49.1654H49.0778H48.9896H48.9008H48.8114H48.7214H48.6307H48.5395H48.4477H48.3554H48.2624H48.1689H48.0748H47.9801H47.8848H47.789H47.6927H47.5958H47.4983H47.4003H47.3017H47.2026H47.103H47.0028H46.9022H46.801H46.6992H46.597H46.4942H46.391H46.2872H46.183H46.0782H45.973H45.8672H45.761H45.6543H45.5471H45.4395H45.3314H45.2228H45.1137H45.0042H44.8943H44.7839H44.673H44.5617H44.45H44.3378H44.2252H44.1122H43.9988H43.8849H43.7706H43.6559H43.5408H43.4253H43.3094H43.1931H43.0765H42.9594H42.8419H42.7241H42.6059H42.4873H42.3684H42.249H42.1294H42.0093H41.8889H41.7682H41.6471H41.5257H41.4039H41.2818H41.1594H41.0366H40.9136H40.7902H40.6665H40.5424H40.4181H40.2935H40.1686H40.0434H39.9178H39.792H39.6659H39.5396H39.4129H39.286H39.1588H39.0314H38.9037H38.7757H38.6475H38.5191H38.3903H38.2614H38.1322H38.0028H37.8731H37.7433H37.6132H37.4828H37.3523H37.2216H37.0906H36.9595H36.8281H36.6966H36.5648H36.4329H36.3008H36.1685H36.036H35.9034H35.7706H35.6376H35.5045H35.3712H35.2378H35.1042H34.9705H34.8366H34.7026H34.5685H34.4342H34.2998H34.1653H34.0306H33.8959H33.761H33.6261H33.491H33.3558H33.2206H33.0852H32.9498H32.8143H32.6787H32.543H32.4072H32.2714H32.1355H31.9996H31.8636H31.7275H31.5914H31.4553H31.3191H31.1829H31.0466H30.9104H30.7741H30.6377H30.5014H30.365H30.2286H30.0923H29.9559H29.8195H29.6831H29.5468H29.4104H29.2741H29.1378H29.0015H28.8652H28.729H28.5928H28.4567H28.3206H28.1845H28.0485H27.9126H27.7767H27.6409H27.5051H27.3694H27.2338H27.0983H26.9628H26.8274H26.6922H26.557H26.4219H26.2869H26.152H26.0173H25.8826H25.7481H25.6137H25.4794H25.3452H25.2112H25.0773H24.9436H24.81H24.6765H24.5432H24.41H24.2771H24.1442H24.0116H23.8791H23.7468H23.6146H23.4827H23.3509H23.2193H23.088H22.9568H22.8258H22.695H22.5645H22.4341H22.304H22.1741H22.0444H21.915H21.7857H21.6567H21.528H21.3995H21.2712H21.1432H21.0155H20.888H20.7608H20.6339H20.5072H20.3808H20.2546H20.1288H20.0032H19.878H19.753H19.6283H19.504H19.3799H19.2562H19.1327H19.0096H18.8868H18.7643H18.6422H18.5204H18.3989H18.2778H18.157H18.0365H17.9165H17.7967H17.6774H17.5583H17.4397H17.3214H17.2036H17.086H16.9689H16.8522H16.7358H16.6199H16.5043H16.3892H16.2744H16.1601H16.0462H15.9327H15.8196H15.7069H15.5947H15.4829H15.3715H15.2606H15.1502H15.0401H14.9306H14.8215H14.7128H14.6046H14.4969H14.3897H14.2829H14.1766H14.0708H13.9655H13.8606H13.7563H13.6525H13.5492H13.4463H13.344H13.2422H13.1409H13.0402H12.9399H12.8402H12.7411H12.6424H12.5444H12.4468H12.3498H12.2534H12.1575H12.0622H11.9674H11.8732H11.7796H11.6866H11.5941H11.5022H11.4109H11.3202H11.2301H11.1406H11.0517H10.9634H10.8757H10.7887H10.7022H10.6164H10.5312H10.4466H10.3627H10.2794H10.1967H10.1147H10.0333H9.95264H9.87259H9.7932H9.71447H9.63641H9.55903H9.48232H9.40629H9.33095H9.25629H9.18233H9.10906H9.03649H8.96462H8.89346H8.82302H8.75328H8.68427H8.61598H8.54841H8.48158H8.41548H8.35012H8.2855H8.22162H8.1585H8.09613H8.03452H7.97366H7.91358H7.85426H7.79571H7.73795H7.68096H7.62475H7.56934H7.51472H7.46089H7.40786H7.35564H7.30422H7.25362H7.20383H7.15486H7.10671H7.05939H7.0129H6.96724H6.92242H6.87845H6.83532H6.79304H6.75161H6.71105H6.67134H6.6325H6.59453H6.55743H6.52121H6.48587H6.45141H6.41784H6.38517H6.35339H6.32251H6.29253H6.26347H6.23531H6.20807H6.18175H6.15635H6.13188H6.10834H6.08573H6.06407H6.04334H6.02357H6.00474H5.98687H5.96995H5.954H5.93901H5.92499H5.91194H5.89987H5.88879H5.87868H5.86957C4.5146 35.3695 3.41301 36.4711 3.41301 37.826C3.41301 39.181 4.5146 40.2826 5.86957 40.2826Z" fill="#BE1E2D" stroke="white"/>
</svg>
