<svg width="40" height="40" viewBox="0 0 40 40" fill="none" xmlns="http://www.w3.org/2000/svg">
<path d="M3.33301 23.3333C3.33301 17.048 3.33301 13.9052 5.28562 11.9526C7.23826 10 10.3809 10 16.6663 10H23.333C29.6183 10 32.7612 10 34.7137 11.9526C35.8023 13.0412 36.284 14.4998 36.4972 16.6667M36.6663 23.3333C36.6663 29.6187 36.6663 32.7615 34.7137 34.714C32.7612 36.6667 29.6183 36.6667 23.333 36.6667H16.6663C10.381 36.6667 7.23824 36.6667 5.28562 34.714C4.19699 33.6253 3.71529 32.1668 3.50216 30" stroke="#BE1E2D" stroke-width="2" stroke-linecap="round"/>
<path d="M26.6663 9.99992C26.6663 6.85722 26.6663 5.28587 25.69 4.30957C24.7137 3.33325 23.1423 3.33325 19.9997 3.33325C16.857 3.33325 15.2856 3.33325 14.3093 4.30957C13.333 5.28587 13.333 6.85722 13.333 9.99992" stroke="#BE1E2D" stroke-width="2"/>
<path d="M25.5 23H15.5M20.5 18V28" stroke="#BE1E2D" stroke-width="2" stroke-linecap="round"/>
</svg>
