<svg width="40" height="40" viewBox="0 0 40 40" fill="none" xmlns="http://www.w3.org/2000/svg">
<path d="M37.3564 21.5169C36.9121 14.5651 32.2534 8.58291 25.6196 6.46025C25.3748 4.53627 23.7286 3.04346 21.7391 3.04346H18.2608C16.2713 3.04346 14.6252 4.53627 14.3803 6.46025C7.74672 8.58291 3.08789 14.5651 2.64359 21.5169C1.10742 22.0454 0 23.504 0 25.2174C0 27.0361 1.24734 28.5689 2.93133 29.0056L4.09516 32.4971C4.9843 35.1646 7.47063 36.9566 10.2823 36.9566H29.7178C32.5294 36.9566 35.0158 35.1645 35.9048 32.4972L37.0688 29.0056C38.7527 28.5689 40 27.0362 40 25.2174C40 23.504 38.8926 22.0454 37.3564 21.5169ZM25.6522 9.23791C30.703 11.2026 34.2319 15.877 34.7231 21.3043H25.6522V9.23791ZM16.9565 6.95658C16.9565 6.23736 17.5416 5.65221 18.2609 5.65221H21.7391C22.4584 5.65221 23.0435 6.23736 23.0435 6.95658V21.3044H16.9566V6.95658H16.9565ZM14.3478 9.23791V21.3043H5.27688C5.7682 15.877 9.29695 11.2026 14.3478 9.23791ZM33.43 31.6722C32.8966 33.2725 31.4047 34.3478 29.7178 34.3478H10.2823C8.59531 34.3478 7.10352 33.2726 6.57 31.6722L5.72281 29.1305H34.2773L33.43 31.6722ZM36.087 26.5217H3.91305C3.19383 26.5217 2.60867 25.9366 2.60867 25.2174C2.60867 24.4981 3.19383 23.913 3.91305 23.913C4.89359 23.913 34.7855 23.913 36.087 23.913C36.8062 23.913 37.3913 24.4981 37.3913 25.2174C37.3913 25.9367 36.8062 26.5217 36.087 26.5217Z" fill="#BE1E2D"/>
</svg>
