<svg width="40" height="40" viewBox="0 0 40 40" fill="none" xmlns="http://www.w3.org/2000/svg">
<path d="M19.9997 16.6666C23.6816 16.6666 26.6663 13.6818 26.6663 9.99992C26.6663 6.31802 23.6816 3.33325 19.9997 3.33325C16.3178 3.33325 13.333 6.31802 13.333 9.99992C13.333 13.6818 16.3178 16.6666 19.9997 16.6666Z" stroke="#BE1E2D" stroke-width="2"/>
<path d="M29.9997 33.3333C33.6816 33.3333 36.6663 30.3486 36.6663 26.6667C36.6663 22.9848 33.6816 20 29.9997 20C26.3178 20 23.333 22.9848 23.333 26.6667C23.333 30.3486 26.3178 33.3333 29.9997 33.3333Z" stroke="#BE1E2D" stroke-width="2"/>
<path d="M27.7773 26.6666L29.1665 28.3332L32.2218 25.1851" stroke="#BE1E2D" stroke-width="2" stroke-linecap="round" stroke-linejoin="round"/>
<path d="M25.0003 22.2119C23.4563 21.8604 21.7685 21.6667 20.0003 21.6667C12.6365 21.6667 6.66699 25.0246 6.66699 29.1667C6.66699 33.3089 6.66699 36.6667 20.0003 36.6667C29.4793 36.6667 32.2195 34.9696 33.0117 32.5001" stroke="#BE1E2D" stroke-width="2"/>
</svg>
