<svg width="60" height="60" viewBox="0 0 60 60" fill="none" xmlns="http://www.w3.org/2000/svg">
<path d="M2.5 55H57.5" stroke="#BE1E2D" stroke-width="3" stroke-miterlimit="10" stroke-linecap="round" stroke-linejoin="round"/>
<path d="M49.45 55.0252V43.875" stroke="#BE1E2D" stroke-width="3" stroke-miterlimit="10" stroke-linecap="round" stroke-linejoin="round"/>
<path d="M49.5002 27.2253C46.4502 27.2253 44.0002 29.6753 44.0002 32.7253V38.4003C44.0002 41.4503 46.4502 43.9003 49.5002 43.9003C52.5502 43.9003 55.0002 41.4503 55.0002 38.4003V32.7253C55.0002 29.6753 52.5502 27.2253 49.5002 27.2253Z" stroke="#BE1E2D" stroke-width="3" stroke-miterlimit="10" stroke-linecap="round" stroke-linejoin="round"/>
<path d="M5.25024 55.0001V15.0752C5.25024 10.0502 7.75037 7.52515 12.7254 7.52515H28.3002C33.2752 7.52515 35.7502 10.0502 35.7502 15.0752V55.0001" stroke="#BE1E2D" stroke-width="3" stroke-miterlimit="10" stroke-linecap="round" stroke-linejoin="round"/>
<path d="M14.5001 20.625H26.8752" stroke="#BE1E2D" stroke-width="3" stroke-miterlimit="10" stroke-linecap="round" stroke-linejoin="round"/>
<path d="M14.5001 30H26.8752" stroke="#BE1E2D" stroke-width="3" stroke-miterlimit="10" stroke-linecap="round" stroke-linejoin="round"/>
<path d="M20.625 55V45.625" stroke="#BE1E2D" stroke-width="3" stroke-miterlimit="10" stroke-linecap="round" stroke-linejoin="round"/>
</svg>
