<svg width="40" height="40" viewBox="0 0 40 40" fill="none" xmlns="http://www.w3.org/2000/svg">
<path d="M26.6667 13.3334H33.3333C34.2538 13.3334 35 14.0796 35 15.0001V33.3334L29.445 28.7184C29.1458 28.4697 28.768 28.3334 28.3788 28.3334H15C14.0795 28.3334 13.3333 27.5872 13.3333 26.6667V21.6667M26.6667 13.3334V8.33341C26.6667 7.41295 25.9205 6.66675 25 6.66675H6.66667C5.7462 6.66675 5 7.41295 5 8.33341V26.6672L10.555 22.0514C10.8543 21.8029 11.2321 21.6667 11.6211 21.6667H13.3333M26.6667 13.3334V20.0001C26.6667 20.9206 25.9205 21.6667 25 21.6667H13.3333" stroke="#BE1E2D" stroke-width="2" stroke-linecap="round" stroke-linejoin="round"/>
</svg>
